<svg width="198" height="109" viewBox="0 0 198 109" fill="none" xmlns="http://www.w3.org/2000/svg">
<g clip-path="url(#clip0_710_103)">
<path d="M30.2042 93.136C25.8074 96.4182 24.5613 102.193 24.5613 102.193C24.5613 102.193 30.4438 102.647 34.8405 99.3644C39.2373 96.0822 40.4834 90.3071 40.4834 90.3071C40.4834 90.3071 34.6009 89.8537 30.2042 93.136Z" fill="#F1F1F1"/>
<path d="M32.0357 94.677C29.9225 99.7447 24.6302 102.356 24.6302 102.356C24.6302 102.356 22.764 96.7513 24.8771 91.6835C26.9903 86.6158 32.2826 84.0043 32.2826 84.0043C32.2826 84.0043 34.1488 89.6092 32.0357 94.677Z" fill="#F1F1F1"/>
<path d="M158.535 80.0268C158.068 76.8754 157.944 73.6825 158.167 70.5044L158.535 65.2447C156.507 69.2861 156.965 74.6053 158.535 80.0268V80.0268Z" fill="#CACACA"/>
<path d="M160.116 80.9067C159.891 79.0262 159.832 77.1295 159.939 75.2386L160.116 72.1078C159.141 74.5134 159.361 77.6796 160.116 80.9067Z" fill="#CACACA"/>
<path d="M167.146 84.7786V86.5384C167.145 86.6782 167.09 86.812 166.991 86.9109C166.892 87.0097 166.759 87.0656 166.619 87.0663H165.74C165.717 87.0662 165.694 87.0707 165.673 87.0795C165.652 87.0883 165.632 87.1013 165.616 87.1177C165.6 87.134 165.587 87.1534 165.578 87.1748C165.569 87.1962 165.565 87.2191 165.565 87.2423V101.672C165.564 101.812 165.508 101.946 165.409 102.045C165.311 102.144 165.177 102.2 165.037 102.2H154.318C154.178 102.2 154.044 102.145 153.945 102.046C153.847 101.947 153.791 101.812 153.791 101.672V87.2423C153.791 87.1956 153.772 87.151 153.739 87.118C153.706 87.085 153.662 87.0664 153.615 87.0663H152.561C152.421 87.0662 152.287 87.0105 152.188 86.9115C152.089 86.8126 152.034 86.6783 152.034 86.5384V84.7786C152.034 84.7092 152.047 84.6405 152.074 84.5764C152.1 84.5123 152.139 84.4541 152.188 84.4051C152.237 84.356 152.295 84.3171 152.359 84.2906C152.423 84.2641 152.492 84.2505 152.561 84.2506H166.619C166.759 84.2511 166.893 84.3068 166.991 84.4057C167.09 84.5047 167.146 84.6387 167.146 84.7786Z" fill="#F2F2F2"/>
<path d="M165.581 87.4359H153.807V87.9638H165.581V87.4359Z" fill="#E6E6E6"/>
<path d="M165.565 95.2044C161.625 96.8371 157.642 96.8551 153.615 95.2044V91.485C157.492 90.1811 161.688 90.1811 165.565 91.485V95.2044Z" fill="#E6E6E6"/>
<path d="M99.5718 38.3365C108.367 38.3365 115.496 31.1966 115.496 22.3892C115.496 13.5817 108.367 6.44177 99.5718 6.44177C90.7769 6.44177 83.6472 13.5817 83.6472 22.3892C83.6472 31.1966 90.7769 38.3365 99.5718 38.3365Z" fill="#FEB8B8"/>
<path d="M114.446 8.63108C112.065 4.7594 108.338 1.90651 103.983 0.621573L102.028 2.05026V0.195151C100.982 0.0348303 99.923 -0.0269298 98.8655 0.0106828L97.1788 1.53899V0.137655C94.6815 0.448426 92.2756 1.274 90.1128 2.56231C87.95 3.85062 86.0772 5.57373 84.6125 7.62297C80.9497 12.911 80.3313 20.2678 83.934 25.5982C84.9229 22.5546 86.1233 19.6987 87.1125 16.6553C87.8897 16.7614 88.6775 16.7653 89.4558 16.6667L90.659 13.8552L90.9951 16.5477C94.7246 16.2225 100.256 15.508 103.792 14.8534L103.448 12.7877L105.505 14.5042C106.588 14.2545 107.231 14.0279 107.178 13.8549C109.807 18.1 113.025 20.8114 115.655 25.0565C116.653 19.0706 117.803 14.0934 114.446 8.63108Z" fill="#000000"/>
<path d="M133.821 63.3984C133.274 60.0992 132.709 56.7367 131.178 53.7646C130.171 51.8179 128.574 49.9628 126.421 49.5779C125.996 49.54 125.58 49.4434 125.182 49.2907C124.551 48.9864 116.072 44.1392 114.724 43.295C113.567 42.5702 111.741 41.2283 110.82 41.2283C109.893 41.2079 106.34 42.036 92.4731 40.9504C92.4731 40.9504 88.6636 42.4541 85.7159 44.2775C85.6712 44.248 71.323 51.964 70.7839 51.9437C69.7631 51.9006 68.8142 52.5552 68.2289 53.3794C67.6439 54.2037 67.3694 55.2241 67.082 56.2107C70.2159 63.1998 73.0833 70.1978 76.2175 77.1869C76.3642 77.4501 76.4422 77.7462 76.4442 78.0477C76.3812 78.3606 76.2478 78.655 76.0543 78.9085C74.5173 81.381 74.5662 84.4908 74.734 87.3967C74.9021 90.3027 75.1099 93.3722 73.813 95.9769C73.4603 96.692 73.0016 97.3465 72.6661 98.0616C71.8805 99.6812 71.5966 104.861 72.0554 106.601L129.547 108.251C128.311 104.848 133.821 63.3984 133.821 63.3984Z" fill="#ab121c"/>
<path d="M62.1125 77.4968C61.9978 78.3278 61.9862 79.1698 62.0781 80.0036L62.9021 91.8544C62.9794 92.9713 63.0556 94.0855 63.1603 95.1996C63.358 97.3619 63.6533 99.5069 64.0199 101.649C64.0282 101.953 64.1566 102.241 64.377 102.451C64.5974 102.66 64.8917 102.773 65.1954 102.766C68.8226 103.534 72.5703 103.504 76.2721 103.294C81.921 102.979 96.3729 102.381 97.2559 101.233C98.1388 100.084 97.6243 98.2261 96.473 97.2973C95.3217 96.3685 76.2503 94.1042 76.2503 94.1042C76.4367 92.6254 76.9988 91.2327 77.5321 89.8286C78.4899 87.3383 79.3845 84.7662 79.4017 82.0986C79.4189 79.4309 78.4153 76.6261 76.2331 75.0978C74.4381 73.8431 72.1269 73.6104 69.9395 73.662C68.348 73.7078 65.5982 73.326 64.1445 73.9492C62.9942 74.4565 62.3274 76.3688 62.1125 77.4968Z" fill="#FBBEBE"/>
<path d="M66.9161 56.4234C66.6368 56.7163 66.4202 57.0632 66.2796 57.4429C63.9619 62.6739 62.5929 68.2765 62.2367 73.9883C62.243 74.2668 62.1789 74.5424 62.0504 74.7895C61.9236 74.9538 61.7826 75.1066 61.6288 75.246C61.4948 75.4051 61.3934 75.5891 61.3304 75.7875C61.2673 75.9858 61.244 76.1947 61.2615 76.4021C61.2791 76.6096 61.3373 76.8115 61.4328 76.9964C61.5283 77.1813 61.6592 77.3455 61.8181 77.4797C61.8442 77.5017 61.8709 77.5229 61.8984 77.5432C62.3715 76.6516 63.504 76.3602 64.5107 76.2827C69.3306 75.9009 74.0389 78.1464 78.8733 77.977C78.5322 76.7967 78.0416 75.6626 77.7634 74.4682C76.5333 69.1645 79.6015 63.3901 77.7205 58.2816C77.3447 57.2593 76.7169 56.2543 75.7277 55.8064C75.3181 55.6409 74.8895 55.5273 74.4518 55.4682C73.2302 55.2471 70.7984 54.3024 69.6174 54.6814C69.1814 54.8223 69.0095 55.2327 68.6482 55.4808C68.0993 55.8319 67.3711 55.961 66.9161 56.4234Z" fill="#ab121c"/>
<path d="M133.856 73.9492C132.402 73.326 129.652 73.7078 128.061 73.662C125.873 73.6104 123.562 73.8431 121.767 75.0978C119.585 76.6261 118.581 79.4309 118.598 82.0986C118.616 84.7662 119.51 87.3383 120.468 89.8286C121.001 91.2327 121.563 92.6254 121.75 94.1042C121.75 94.1042 102.678 96.3685 101.527 97.2973C100.376 98.2261 99.8613 100.084 100.744 101.233C101.627 102.381 129.177 103.534 132.805 102.766C133.108 102.773 133.403 102.66 133.623 102.451C133.843 102.241 133.972 101.953 133.98 101.649C134.347 99.5069 134.642 97.3619 134.84 95.1996C134.944 94.0855 135.021 92.9713 135.098 91.8543L135.922 80.0037C136.014 79.1698 136.002 78.3278 135.888 77.4968C135.673 76.3688 135.006 74.4565 133.856 73.9492Z" fill="#FBBEBE"/>
<path d="M129.352 55.4808C128.99 55.2327 128.819 54.8222 128.383 54.6814C127.202 54.3024 124.77 55.2471 123.548 55.4682C123.11 55.5273 122.682 55.6409 122.272 55.8064C121.283 56.2543 120.655 57.2593 120.279 58.2816C118.398 63.3901 121.467 69.1645 120.237 74.4681C119.958 75.6626 119.468 76.7967 119.127 77.977C123.961 78.1464 128.669 75.9008 133.489 76.2827C134.496 76.3601 135.628 76.6516 136.102 77.5432C136.129 77.5229 136.156 77.5018 136.182 77.4797C136.341 77.3455 136.472 77.1813 136.567 76.9964C136.663 76.8115 136.721 76.6095 136.738 76.4021C136.756 76.1947 136.733 75.9858 136.67 75.7875C136.607 75.5891 136.505 75.4051 136.371 75.246C136.217 75.1066 136.076 74.9538 135.95 74.7895C135.821 74.5424 135.757 74.2668 135.763 73.9882C135.407 68.2765 134.038 62.6739 131.72 57.4429C131.58 57.0632 131.363 56.7163 131.084 56.4234C130.629 55.961 129.901 55.8319 129.352 55.4808Z" fill="#ab121c"/>
<path d="M94.8554 103.332C97.2292 103.332 99.1535 101.405 99.1535 99.0276C99.1535 96.6504 97.2292 94.7234 94.8554 94.7234C92.4817 94.7234 90.5574 96.6504 90.5574 99.0276C90.5574 101.405 92.4817 103.332 94.8554 103.332Z" fill="#FBBEBE"/>
<path d="M104.373 103.332C106.746 103.332 108.671 101.405 108.671 99.0276C108.671 96.6504 106.746 94.7234 104.373 94.7234C101.999 94.7234 100.074 96.6504 100.074 99.0276C100.074 101.405 101.999 103.332 104.373 103.332Z" fill="#FBBEBE"/>
<path d="M130.903 108.727H71.8545C71.1651 108.726 70.5042 108.451 70.0167 107.963C69.5292 107.475 69.255 106.813 69.2542 106.123V70.2481C69.255 69.5577 69.5292 68.8959 70.0167 68.4077C70.5042 67.9195 71.1651 67.6449 71.8545 67.6442H130.903C131.593 67.6449 132.254 67.9195 132.741 68.4077C133.229 68.8959 133.503 69.5577 133.504 70.2481V106.123C133.503 106.813 133.229 107.475 132.741 107.963C132.254 108.451 131.593 108.726 130.903 108.727Z" fill="#000000"/>
<path d="M101.236 89.9083C102.186 89.9083 102.956 89.1369 102.956 88.1853C102.956 87.2338 102.186 86.4624 101.236 86.4624C100.286 86.4624 99.5154 87.2338 99.5154 88.1853C99.5154 89.1369 100.286 89.9083 101.236 89.9083Z" fill="white"/>
<path d="M198 101.491H0V107.584H11.7115V109H186.293V107.584H198V101.491Z" fill="#F1F1F1"/>
<path d="M84.928 28.333C82.3692 28.333 80.2949 26.087 80.2949 23.3165V20.8081C80.2949 18.0376 82.3692 15.7916 84.928 15.7916V28.333H84.928Z" fill="#ab121c"/>
<path d="M114.5 15.7916C117.058 15.7916 119.133 18.0376 119.133 20.8081V23.3164C119.133 26.087 117.058 28.333 114.5 28.333V15.7916Z" fill="#ab121c"/>
<path d="M116.927 21.2023H116.192C116.192 11.108 108.608 2.89561 99.2851 2.89561C89.9625 2.89561 82.3779 11.108 82.3779 21.2023H81.6428C81.6428 10.6691 89.5571 2.09967 99.2851 2.09967C109.013 2.09967 116.927 10.6691 116.927 21.2023Z" fill="#ab121c"/>
</g>
<defs>
<clipPath id="clip0_710_103">
<rect width="198" height="109" fill="white"/>
</clipPath>
</defs>
</svg>
