<svg width="26" height="33" viewBox="0 0 26 33" fill="none" xmlns="http://www.w3.org/2000/svg">
<path d="M24.6568 32.9999C20.8307 31.4766 19.7502 30.5732 19.5199 30.3429V28.6602C17.8725 29.8292 14.8258 31.7069 12.3283 31.7069C9.84839 31.7069 6.78398 29.8292 5.13663 28.6602V30.3429C4.90636 30.5732 3.84356 31.4766 -0.000244141 32.9999H24.6391H24.6568Z" fill="url(#paint0_linear_155_179453)"/>
<path d="M2.17828 19.6618C2.6034 22.2834 4.42788 26.4638 5.86266 27.4912C8.41339 29.2979 10.7693 30.343 12.3458 30.343C13.9222 30.343 16.2781 29.2979 18.8288 27.4912C19.2008 27.2255 19.6082 26.7295 19.9979 26.1095L18.7049 24.8164C18.262 24.3736 18.014 23.7713 18.014 23.1337C18.014 22.7263 18.1203 22.3366 18.2975 22L16.6501 20.3527C15.4456 21.3446 13.94 21.8937 12.3458 21.8937C10.5213 21.8937 8.8208 21.1852 7.52772 19.8921C6.23465 18.599 5.52611 16.8986 5.52611 15.0741C5.52611 13.2496 6.23465 11.5491 7.52772 10.256C8.8208 8.96297 10.5213 8.25443 12.3458 8.25443C14.1702 8.25443 15.8707 8.96297 17.1638 10.256C18.4569 11.5491 19.1654 13.2496 19.1654 15.0741C19.1654 16.6683 18.6163 18.1739 17.6243 19.3784L19.2717 21.0258C20.1751 20.5475 21.3264 20.6715 22.0881 21.4332C22.283 20.8132 22.4247 20.211 22.5132 19.6796L22.5487 19.5379C23.5406 16.5797 23.8595 15.0032 23.8063 14.525C23.7532 13.8696 23.4343 13.2673 23.1863 12.8776L23.0092 12.6119L23.1332 8.71498C23.2572 5.24316 21.8756 3.11755 19.0237 2.42673L18.6871 2.33817L18.4746 2.07246C17.8015 1.22222 16.4198 0.0708535 12.2041 0C12.0801 0 11.9561 0 11.8321 0C7.81114 0 4.853 1.31079 2.9931 3.91466C1.98344 5.33173 1.48746 6.99678 1.5406 8.73269L1.66459 12.6296L1.48746 12.8953C1.23947 13.285 0.920633 13.8873 0.867493 14.5427C0.832067 15.0387 1.13319 16.5974 2.12514 19.5379L2.16057 19.6796L2.17828 19.6618Z" fill="url(#paint1_linear_155_179453)"/>
<path d="M12.346 11.673V10.3091C11.0706 10.3091 9.88379 10.8051 8.98041 11.7084C8.07703 12.6118 7.58105 13.7986 7.58105 15.074C7.58105 16.3493 8.07703 17.5361 8.98041 18.4395L9.93693 17.483C9.29925 16.8453 8.94498 15.9951 8.94498 15.074C8.94498 14.1529 9.29925 13.3026 9.93693 12.665C10.5746 12.0273 11.4426 11.673 12.346 11.673Z" fill="url(#paint2_linear_155_179453)"/>
<path d="M21.1142 22.4076C20.9194 22.2127 20.6537 22.1064 20.388 22.1064C20.1223 22.1064 19.8566 22.2127 19.6617 22.4076C19.4669 22.6024 19.3606 22.8504 19.3606 23.1338C19.3606 23.4172 19.4669 23.6652 19.6617 23.8601L24.0015 28.1998C24.3912 28.5895 25.0466 28.5895 25.454 28.1998C25.6488 28.005 25.7551 27.757 25.7551 27.4736C25.7551 27.1902 25.6488 26.9422 25.454 26.7473L21.1142 22.4076Z" fill="url(#paint3_linear_155_179453)"/>
<defs>
<linearGradient id="paint0_linear_155_179453" x1="-0.0005416" y1="30.83" x2="24.6552" y2="30.83" gradientUnits="userSpaceOnUse">
<stop stop-color="#AB121C"/>
<stop offset="1" stop-color="#FBAD25"/>
</linearGradient>
<linearGradient id="paint1_linear_155_179453" x1="0.864469" y1="15.1715" x2="23.8104" y2="15.1715" gradientUnits="userSpaceOnUse">
<stop stop-color="#AB121C"/>
<stop offset="1" stop-color="#FBAD25"/>
</linearGradient>
<linearGradient id="paint2_linear_155_179453" x1="7.581" y1="14.3743" x2="12.3456" y2="14.3743" gradientUnits="userSpaceOnUse">
<stop stop-color="#AB121C"/>
<stop offset="1" stop-color="#FBAD25"/>
</linearGradient>
<linearGradient id="paint3_linear_155_179453" x1="19.3605" y1="25.2993" x2="25.7547" y2="25.2993" gradientUnits="userSpaceOnUse">
<stop stop-color="#AB121C"/>
<stop offset="1" stop-color="#FBAD25"/>
</linearGradient>
</defs>
</svg>
