<svg width="39" height="40" viewBox="0 0 39 40" fill="none" xmlns="http://www.w3.org/2000/svg">
<path d="M24.3267 28.7676V28.108C24.3267 27.8827 24.391 27.6736 24.5358 27.4805C24.8254 27.0944 26.016 24.8902 26.3861 22.5251C26.5631 22.0102 27.2871 19.7899 27.2388 19.1302C27.1905 18.5671 26.8688 18.0684 26.7079 17.8431L26.7883 15.3332C26.8688 12.9359 25.8069 11.4075 23.7796 10.9731C23.4418 10.5065 22.6534 9.4607 19.4195 9.39634C16.5396 9.33198 14.5123 10.2169 13.2091 12.051C12.5173 13.0164 12.1794 14.1426 12.2277 15.3332L12.3081 17.8431C12.1472 18.0684 11.8254 18.5671 11.7772 19.1302C11.7289 19.806 12.4529 22.0102 12.6299 22.5251C12.9999 24.8741 14.1905 27.0944 14.4801 27.4805C14.6089 27.6575 14.6893 27.8827 14.6893 28.108V28.7676C14.5123 28.9768 13.8044 29.6686 11.6646 30.5857C13.8848 32.1624 16.5878 33.0956 19.516 33.0956C22.4443 33.0956 25.1472 32.1624 27.3675 30.5857C25.2116 29.6686 24.5037 28.9768 24.3428 28.7676H24.3267Z" fill="url(#paint0_linear_155_179471)"/>
<path d="M20.2722 0H18.7438V3.9901H20.2722V0Z" fill="url(#paint1_linear_155_179471)"/>
<path d="M14.0673 0.758987L12.6171 1.2417L13.8772 5.02759L15.3274 4.54488L14.0673 0.758987Z" fill="url(#paint2_linear_155_179471)"/>
<path d="M8.60302 3.32493L7.37024 4.22852L9.72906 7.44672L10.9618 6.54314L8.60302 3.32493Z" fill="url(#paint3_linear_155_179471)"/>
<path d="M4.21633 7.37171L3.31274 8.60449L6.53095 10.9633L7.43453 9.73053L4.21633 7.37171Z" fill="url(#paint4_linear_155_179471)"/>
<path d="M1.24309 12.6313L0.760376 14.0815L4.54626 15.3417L5.02898 13.8914L1.24309 12.6313Z" fill="url(#paint5_linear_155_179471)"/>
<path d="M3.9901 18.7437H0V20.2721H3.9901V18.7437Z" fill="url(#paint6_linear_155_179471)"/>
<path d="M4.5459 23.6847L0.76001 24.9448L1.24272 26.3951L5.02861 25.1349L4.5459 23.6847Z" fill="url(#paint7_linear_155_179471)"/>
<path d="M6.53461 28.0674L3.31641 30.4263L4.21999 31.6591L7.43819 29.3002L6.53461 28.0674Z" fill="url(#paint8_linear_155_179471)"/>
<path d="M9.72699 31.5606L7.36816 34.7788L8.60095 35.6824L10.9598 32.4642L9.72699 31.5606Z" fill="url(#paint9_linear_155_179471)"/>
<path d="M13.877 33.9978L12.6168 37.7837L14.0671 38.2664L15.3272 34.4805L13.877 33.9978Z" fill="url(#paint10_linear_155_179471)"/>
<path d="M20.2722 35.0259H18.7438V39.016H20.2722V35.0259Z" fill="url(#paint11_linear_155_179471)"/>
<path d="M25.1359 33.9836L23.6857 34.4663L24.9458 38.2522L26.396 37.7695L25.1359 33.9836Z" fill="url(#paint12_linear_155_179471)"/>
<path d="M29.292 31.5749L28.0592 32.4785L30.418 35.6967L31.6508 34.7931L29.292 31.5749Z" fill="url(#paint13_linear_155_179471)"/>
<path d="M32.4771 28.0519L31.5735 29.2847L34.7917 31.6435L35.6953 30.4107L32.4771 28.0519Z" fill="url(#paint14_linear_155_179471)"/>
<path d="M34.4561 23.6796L33.9734 25.1299L37.7593 26.39L38.242 24.9398L34.4561 23.6796Z" fill="url(#paint15_linear_155_179471)"/>
<path d="M39.0001 18.7437H35.01V20.2721H39.0001V18.7437Z" fill="url(#paint16_linear_155_179471)"/>
<path d="M37.7704 12.6158L33.9845 13.876L34.4672 15.3262L38.2531 14.0661L37.7704 12.6158Z" fill="url(#paint17_linear_155_179471)"/>
<path d="M34.7974 7.38483L31.5792 9.74365L32.4828 10.9764L35.701 8.61761L34.7974 7.38483Z" fill="url(#paint18_linear_155_179471)"/>
<path d="M30.4074 3.31646L28.0486 6.53467L29.2814 7.43825L31.6402 4.22004L30.4074 3.31646Z" fill="url(#paint19_linear_155_179471)"/>
<path d="M24.9456 0.758545L23.6854 4.54443L25.1357 5.02715L26.3958 1.24126L24.9456 0.758545Z" fill="url(#paint20_linear_155_179471)"/>
<defs>
<linearGradient id="paint0_linear_155_179471" x1="11.6644" y1="21.2443" x2="27.3665" y2="21.2443" gradientUnits="userSpaceOnUse">
<stop stop-color="#AB121C"/>
<stop offset="1" stop-color="#FBAD25"/>
</linearGradient>
<linearGradient id="paint1_linear_155_179471" x1="18.7438" y1="1.99505" x2="20.2721" y2="1.99505" gradientUnits="userSpaceOnUse">
<stop stop-color="#AB121C"/>
<stop offset="1" stop-color="#FBAD25"/>
</linearGradient>
<linearGradient id="paint2_linear_155_179471" x1="13.2471" y1="3.13465" x2="14.6973" y2="2.65196" gradientUnits="userSpaceOnUse">
<stop stop-color="#AB121C"/>
<stop offset="1" stop-color="#FBAD25"/>
</linearGradient>
<linearGradient id="paint3_linear_155_179471" x1="8.54964" y1="5.83763" x2="9.78235" y2="4.9341" gradientUnits="userSpaceOnUse">
<stop stop-color="#AB121C"/>
<stop offset="1" stop-color="#FBAD25"/>
</linearGradient>
<linearGradient id="paint4_linear_155_179471" x1="4.92184" y1="9.78392" x2="5.82537" y2="8.5512" gradientUnits="userSpaceOnUse">
<stop stop-color="#AB121C"/>
<stop offset="1" stop-color="#FBAD25"/>
</linearGradient>
<linearGradient id="paint5_linear_155_179471" x1="2.65331" y1="14.7116" x2="3.136" y2="13.2615" gradientUnits="userSpaceOnUse">
<stop stop-color="#AB121C"/>
<stop offset="1" stop-color="#FBAD25"/>
</linearGradient>
<linearGradient id="paint6_linear_155_179471" x1="-4.81361e-05" y1="19.5079" x2="3.98984" y2="19.5079" gradientUnits="userSpaceOnUse">
<stop stop-color="#AB121C"/>
<stop offset="1" stop-color="#FBAD25"/>
</linearGradient>
<linearGradient id="paint7_linear_155_179471" x1="1.00132" y1="25.67" x2="4.78701" y2="24.4099" gradientUnits="userSpaceOnUse">
<stop stop-color="#AB121C"/>
<stop offset="1" stop-color="#FBAD25"/>
</linearGradient>
<linearGradient id="paint8_linear_155_179471" x1="3.76816" y1="31.0427" x2="6.9862" y2="28.684" gradientUnits="userSpaceOnUse">
<stop stop-color="#AB121C"/>
<stop offset="1" stop-color="#FBAD25"/>
</linearGradient>
<linearGradient id="paint9_linear_155_179471" x1="7.98453" y1="35.2306" x2="10.3432" y2="32.0126" gradientUnits="userSpaceOnUse">
<stop stop-color="#AB121C"/>
<stop offset="1" stop-color="#FBAD25"/>
</linearGradient>
<linearGradient id="paint10_linear_155_179471" x1="13.3419" y1="38.0251" x2="14.602" y2="34.2394" gradientUnits="userSpaceOnUse">
<stop stop-color="#AB121C"/>
<stop offset="1" stop-color="#FBAD25"/>
</linearGradient>
<linearGradient id="paint11_linear_155_179471" x1="18.7438" y1="37.0209" x2="20.2721" y2="37.0209" gradientUnits="userSpaceOnUse">
<stop stop-color="#AB121C"/>
<stop offset="1" stop-color="#FBAD25"/>
</linearGradient>
<linearGradient id="paint12_linear_155_179471" x1="24.3157" y1="36.3593" x2="25.7659" y2="35.8766" gradientUnits="userSpaceOnUse">
<stop stop-color="#AB121C"/>
<stop offset="1" stop-color="#FBAD25"/>
</linearGradient>
<linearGradient id="paint13_linear_155_179471" x1="29.2386" y1="34.0876" x2="30.4713" y2="33.1841" gradientUnits="userSpaceOnUse">
<stop stop-color="#AB121C"/>
<stop offset="1" stop-color="#FBAD25"/>
</linearGradient>
<linearGradient id="paint14_linear_155_179471" x1="33.1826" y1="30.4641" x2="34.0861" y2="29.2314" gradientUnits="userSpaceOnUse">
<stop stop-color="#AB121C"/>
<stop offset="1" stop-color="#FBAD25"/>
</linearGradient>
<linearGradient id="paint15_linear_155_179471" x1="35.8663" y1="25.76" x2="36.349" y2="24.3098" gradientUnits="userSpaceOnUse">
<stop stop-color="#AB121C"/>
<stop offset="1" stop-color="#FBAD25"/>
</linearGradient>
<linearGradient id="paint16_linear_155_179471" x1="35.01" y1="19.5079" x2="38.9999" y2="19.5079" gradientUnits="userSpaceOnUse">
<stop stop-color="#AB121C"/>
<stop offset="1" stop-color="#FBAD25"/>
</linearGradient>
<linearGradient id="paint17_linear_155_179471" x1="34.2258" y1="14.6011" x2="38.0115" y2="13.341" gradientUnits="userSpaceOnUse">
<stop stop-color="#AB121C"/>
<stop offset="1" stop-color="#FBAD25"/>
</linearGradient>
<linearGradient id="paint18_linear_155_179471" x1="32.031" y1="10.3601" x2="35.249" y2="8.00137" gradientUnits="userSpaceOnUse">
<stop stop-color="#AB121C"/>
<stop offset="1" stop-color="#FBAD25"/>
</linearGradient>
<linearGradient id="paint19_linear_155_179471" x1="28.6649" y1="6.9865" x2="31.0236" y2="3.76846" gradientUnits="userSpaceOnUse">
<stop stop-color="#AB121C"/>
<stop offset="1" stop-color="#FBAD25"/>
</linearGradient>
<linearGradient id="paint20_linear_155_179471" x1="24.4105" y1="4.78584" x2="25.6706" y2="1.00014" gradientUnits="userSpaceOnUse">
<stop stop-color="#AB121C"/>
<stop offset="1" stop-color="#FBAD25"/>
</linearGradient>
</defs>
</svg>
