<svg width="29" height="29" viewBox="0 0 29 29" fill="none" xmlns="http://www.w3.org/2000/svg">
<path d="M8.61703 19.4321C4.29605 21.0864 4.04913 21.9135 3.91333 25.0123H7.76518L16.4689 16.3086H13.901L12.6788 17.5308V17.2345C12.6788 16.9135 12.5923 16.5925 12.4565 16.3086H10.6541C10.8763 16.7654 11.0615 17.074 11.1109 17.1358C11.1973 17.2469 11.2467 17.395 11.2467 17.5308V17.9629C11.0985 18.1234 10.5059 18.6913 8.61703 19.4074V19.4321ZM5.34543 24.8642C5.38247 24.037 5.40716 23.4444 5.51827 22.9753L7.17259 21.3209C7.65407 21.0864 8.2837 20.8395 9.07382 20.5432C9.40716 20.4197 9.75284 20.2716 10.0985 20.1234L5.34543 24.8765V24.8642Z" fill="url(#paint0_linear_155_179565)"/>
<path d="M16.3333 17.2467V18.1603L9.48145 25.0122H12.0493L17.6296 19.4319C17.9259 19.6171 18.2839 19.827 18.7284 20.0369L13.7531 25.0122H16.321L20.5555 20.7776C21.0247 20.9628 21.4197 21.1233 21.7531 21.2838L18.0247 25.0122H20.5926L23.2345 22.3702C23.4568 22.7159 23.5555 23.1356 23.6049 23.7035L22.2963 25.0122H25.2469C25.1234 21.9134 24.8642 21.0862 20.5555 19.4319C18.6666 18.7035 18.074 18.1356 17.9259 17.9875V17.5554C17.9259 17.4072 17.9753 17.2714 18.0617 17.148C18.1111 17.0739 18.2963 16.7776 18.5185 16.3208H16.5679C16.4321 16.6171 16.3456 16.9257 16.3456 17.2467H16.3333Z" fill="url(#paint1_linear_155_179565)"/>
<path d="M7.24691 27.79H1.20988V21.7529H0V28.9998H7.24691V27.79Z" fill="url(#paint2_linear_155_179565)"/>
<path d="M1.20988 1.19753H7.24691V0H0V7.24691H1.20988V1.19753Z" fill="url(#paint3_linear_155_179565)"/>
<path d="M29.0001 0H21.7532V1.19753H27.7902V7.24691H29.0001V0Z" fill="url(#paint4_linear_155_179565)"/>
<path d="M29.0001 21.7529H27.7902V27.79H21.7532V28.9998H29.0001V21.7529Z" fill="url(#paint5_linear_155_179565)"/>
<path d="M27.2716 15.0985V13.8886H19.2963C19.2963 13.8886 19.321 13.7898 19.321 13.7281C19.4445 13.3701 19.9383 11.8516 19.9013 11.3824C19.8642 10.9874 19.6544 10.654 19.5432 10.4935L19.605 8.78982C19.6667 7.1355 18.926 6.06143 17.5309 5.76513C17.2963 5.4318 16.7284 4.72809 14.5185 4.69106C12.5309 4.65402 11.1358 5.25896 10.2346 6.51822C9.76546 7.18488 9.51855 7.97501 9.55558 8.78982L9.61731 10.4935C9.49386 10.654 9.29633 10.9997 9.25929 11.3824C9.22225 11.8516 9.71608 13.3577 9.83953 13.7281C9.83953 13.7775 9.85188 13.8269 9.86423 13.8886H1.88892V15.0985H27.2716Z" fill="url(#paint6_linear_155_179565)"/>
<defs>
<linearGradient id="paint0_linear_155_179565" x1="3.91318" y1="20.6604" x2="16.4681" y2="20.6604" gradientUnits="userSpaceOnUse">
<stop stop-color="#AB121C"/>
<stop offset="1" stop-color="#FBAD25"/>
</linearGradient>
<linearGradient id="paint1_linear_155_179565" x1="9.48126" y1="20.6665" x2="25.2459" y2="20.6665" gradientUnits="userSpaceOnUse">
<stop stop-color="#AB121C"/>
<stop offset="1" stop-color="#FBAD25"/>
</linearGradient>
<linearGradient id="paint2_linear_155_179565" x1="-8.74259e-05" y1="25.3764" x2="7.24645" y2="25.3764" gradientUnits="userSpaceOnUse">
<stop stop-color="#AB121C"/>
<stop offset="1" stop-color="#FBAD25"/>
</linearGradient>
<linearGradient id="paint3_linear_155_179565" x1="-8.74259e-05" y1="3.62346" x2="7.24645" y2="3.62346" gradientUnits="userSpaceOnUse">
<stop stop-color="#AB121C"/>
<stop offset="1" stop-color="#FBAD25"/>
</linearGradient>
<linearGradient id="paint4_linear_155_179565" x1="21.7531" y1="3.62346" x2="28.9996" y2="3.62346" gradientUnits="userSpaceOnUse">
<stop stop-color="#AB121C"/>
<stop offset="1" stop-color="#FBAD25"/>
</linearGradient>
<linearGradient id="paint5_linear_155_179565" x1="21.7531" y1="25.3764" x2="28.9996" y2="25.3764" gradientUnits="userSpaceOnUse">
<stop stop-color="#AB121C"/>
<stop offset="1" stop-color="#FBAD25"/>
</linearGradient>
<linearGradient id="paint6_linear_155_179565" x1="1.88861" y1="9.89396" x2="27.27" y2="9.89396" gradientUnits="userSpaceOnUse">
<stop stop-color="#AB121C"/>
<stop offset="1" stop-color="#FBAD25"/>
</linearGradient>
</defs>
</svg>
